<svg id="_x33_0" enable-background="new 0 0 64 64" height="512" viewBox="0 0 64 64" width="512" xmlns="http://www.w3.org/2000/svg"><g><path d="m63 12c0-6.065-4.935-11-11-11-4.657 0-8.637 2.913-10.239 7.009-.935-4.106-4.611-7.009-9.261-7.009-1.572 0-3.115.393-4.5 1.142-1.385-.749-2.928-1.142-4.5-1.142-5.178 0-9.161 3.596-9.479 8.451l-.23.153c-1.748 1.165-2.791 3.114-2.791 5.214 0 1.674.652 3.248 1.836 4.431l.751.751c-.344.591-.556 1.268-.556 1.999 0 2.206 1.794 4 4 4h.764c.979 2.497 2.841 4.548 5.205 5.771v.401c0 .955-.246 1.89-.689 2.726l-9.311-9.311v12.84l-8.353 4.872c-2.25 1.313-3.647 3.746-3.647 6.35 0 4.054 3.298 7.352 7.352 7.352h11.648c.479 0 .932-.089 1.371-.215l6.629 6.629 6.629-6.629c.439.126.892.215 1.371.215h11.648c4.054 0 7.352-3.298 7.352-7.352 0-2.604-1.397-5.038-3.647-6.351l-8.353-4.871v-12.84l-9.311 9.311c-.443-.836-.689-1.771-.689-2.726v-.371c2.393-1.218 4.28-3.282 5.267-5.801h.764c2.206 0 4-1.794 4-4 0-.748-.219-1.44-.578-2.04l.711-.711c.113-.113.205-.243.308-.364.385.514.782 1.003 1.168 1.474 1.071 1.304 1.992 2.437 2.359 3.8v3.842c0 2.757 2.243 5 5 5s5-2.243 5-5v-3.841c.367-1.363 1.288-2.496 2.359-3.8 1.707-2.077 3.642-4.432 3.642-8.359zm-45.969 12c-1.103 0-2-.897-2-2 0-1.1.893-1.994 1.991-1.999l.009 1.999c0 .684.071 1.35.191 2zm10.969 16.586-1.727-1.727c.568.091 1.145.141 1.727.141s1.159-.05 1.727-.141zm-19.648 14.414c-2.952 0-5.352-2.401-5.352-5.352 0-1.896 1.018-3.667 2.655-4.623l7.345-4.284v5.845l-.414.414h-5.586v2h6.414l1.473-1.473c.34-.34.792-.527 1.311-.527.731 0 1.389.406 1.715 1.059l.468.941h1.619c1.654 0 3 1.346 3 3s-1.346 3-3 3zm11.648-8h-.387c-.692-1.238-1.986-2-3.454-2-.401 0-.788.079-1.159.198v-14.784l12 12v17.172l-3.787-3.787c1.083-.918 1.787-2.271 1.787-3.799 0-2.757-2.243-5-5-5zm30.345-1.975c1.637.956 2.655 2.727 2.655 4.623 0 2.951-2.4 5.352-5.352 5.352h-11.648c-1.654 0-3-1.346-3-3s1.346-3 3-3h1.619l.469-.94c.326-.654.983-1.06 1.753-1.06.48 0 .933.187 1.272.527l1.473 1.473h6.414v-2h-5.586l-.414-.414v-5.844zm-13.345 1.154c-.236.242-.443.517-.613.821h-.387c-1.13 0-2.162.391-3 1.026v-3.612l4-4zm4-.978c-.38-.122-.777-.201-1.197-.201-.275 0-.542.036-.803.09v-9.504l-8 8v8.414c0 1.528.704 2.881 1.787 3.799l-3.787 3.787v-17.172l12-12zm-8.986-9.18c-2.498 1.247-5.53 1.247-8.028 0 .595-1.056.936-2.243.997-3.46.969.28 1.99.439 3.048.439 1.036 0 2.035-.154 2.986-.423.064 1.211.404 2.393.997 3.444zm5.017-14.021c0 4.962-4.037 9-9 9s-9-4.038-9-9.004l-.022-4.991c-.001-.268.103-.52.291-.71.189-.191.441-.295.709-.295h10.535c1.581 0 2.975-.822 3.774-2.062l.771.462c1.198.719 1.942 2.034 1.942 3.43zm2 2h-.191c.12-.65.191-1.316.191-2v-2c1.103 0 2 .897 2 2s-.897 2-2 2zm2.719-6.165-.72.72c-.59-.343-1.267-.555-1.999-.555v-.169c0-2.095-1.116-4.066-2.913-5.145l-1.115-.669c.019-.166.028-.333.028-.504 0-1.934-1.233-3.645-3.068-4.257l-.615-.205-.633 1.897.615.205c1.018.339 1.701 1.287 1.701 2.359 0 1.371-1.116 2.487-2.487 2.487h-10.535c-.804 0-1.559.313-2.126.883s-.878 1.326-.874 2.13l.004.989c-.741.003-1.427.22-2.021.576l-.742-.743c-.806-.804-1.25-1.876-1.25-3.016 0-1.43.71-2.757 1.899-3.55l1.096-.73.005-.529c.038-3.996 3.262-7.009 7.5-7.009 1.4 0 2.772.396 3.969 1.146l.531.333.531-.333c1.197-.75 2.569-1.146 3.969-1.146 4.239 0 7.463 3.013 7.5 7.009l.005.529 1.034.689c-.018.257-.039.512-.039.773 0 2.084.551 3.718 1.318 5.11-.166.259-.349.506-.568.725zm11.25-2.421 1.979-1.979c-.093 1.883-.778 3.656-1.979 5.096zm0-2.828v-5.117c.83.996 1.41 2.153 1.725 3.393zm-2 0-1.725-1.725c.315-1.24.895-2.396 1.725-3.392zm0 2.828v3.117c-1.201-1.441-1.886-3.214-1.979-5.096zm4 9.586v2h-6v-2zm-3 6c-1.302 0-2.402-.839-2.816-2h5.631c-.413 1.161-1.513 2-2.815 2zm3.27-8h-2.27v-1.586l.879-.879c2.013-2.013 3.121-4.689 3.121-7.535s-1.108-5.522-3.121-7.536l-1.879-1.878-1.879 1.878c-2.013 2.014-3.121 4.69-3.121 7.536s1.108 5.522 3.121 7.536l.879.878v1.586h-2.27c-.557-1.487-1.563-2.717-2.543-3.911-1.567-1.906-3.187-3.878-3.187-7.089 0-4.962 4.037-9 9-9s9 4.038 9 9c0 3.211-1.62 5.183-3.187 7.089-.98 1.194-1.986 2.424-2.543 3.911z"/><path d="m24.031 20c.552 0 1 .449 1 1h2c0-1.654-1.346-3-3-3s-3 1.346-3 3h2c0-.551.448-1 1-1z"/><path d="m32.031 18c-1.654 0-3 1.346-3 3h2c0-.551.448-1 1-1s1 .449 1 1h2c0-1.654-1.345-3-3-3z"/><path d="m31.031 24.838c-.431 1.293-1.636 2.162-3 2.162s-2.569-.869-3-2.16l-.051-.154-1.898.627.052.156c.703 2.112 2.672 3.53 4.897 3.53s4.193-1.418 4.896-3.527l.052-.154-1.896-.638z"/><path d="m20 36.757h2v8.485h-2z" transform="matrix(.707 -.707 .707 .707 -22.841 26.858)"/></g></svg>